<svg xmlns="http://www.w3.org/2000/svg" viewBox="0 0 284 273.406"><defs><style>.a,.b,.c,.d,.e,.g{fill:none;}.a,.b,.c,.d,.e{stroke:#f8f8f8;}.a,.b,.c{stroke-linecap:round;stroke-linejoin:round;stroke-width:11px;}.a{opacity:0.16;}.b{opacity:0.12;}.c{opacity:0.21;}.d,.e{stroke-width:5px;}.d{opacity:0.2;}.e{opacity:0.09;}.f{stroke:none;}</style></defs><g transform="translate(-1441.586 -250.594)"><path class="a" d="M7414.086,1881.1s5.27-28.58,24.594-21.314,14.932-19.98,14.932-19.98" transform="matrix(0.309, -0.951, 0.951, 0.309, -2488.819, 6986.473)"/><path class="b" d="M7472.547,1839.807s-7.711,31.638-35.985,23.6-21.849,22.118-21.849,22.118" transform="translate(-5752.462 -1459.713)"/><path class="c" d="M7501.6,1839.807s-11.543,25.079-53.866,18.7-32.706,17.532-32.706,17.532" transform="translate(-5887.462 -1583.713)"/><path class="c" d="M7414.086,1865.58s3.4-17.838,15.871-13.3,9.636-12.47,9.636-12.47" transform="translate(-5967 -1458.58)"/><g class="d" transform="translate(1544 372)"><circle class="f" cx="9" cy="9" r="9"/><circle class="g" cx="9" cy="9" r="6.5"/></g><g class="e" transform="translate(1672 495)"><circle class="f" cx="14.5" cy="14.5" r="14.5"/><circle class="g" cx="14.5" cy="14.5" r="12"/></g><g class="d" transform="translate(1637 315)"><circle class="f" cx="9" cy="9" r="9"/><circle class="g" cx="9" cy="9" r="6.5"/></g><g class="d" transform="translate(1455 477)"><circle class="f" cx="5" cy="5" r="5"/><circle class="g" cx="5" cy="5" r="2.5"/></g><g class="d" transform="translate(1686 463)"><circle class="f" cx="5" cy="5" r="5"/><circle class="g" cx="5" cy="5" r="2.5"/></g></g></svg>