<svg id="586f03d5-e6f3-4a3b-a56d-27e5ba131245" data-name="Camada 1" xmlns="http://www.w3.org/2000/svg" xmlns:xlink="http://www.w3.org/1999/xlink" viewBox="0 0 376 249"><defs><clipPath id="1e9e6f5b-82ad-4949-b899-3ae2075fc234"><rect y="52" width="376" height="183" fill="none"/></clipPath><clipPath id="a55337bc-e601-437f-af9f-aa7cb6f27bef"><rect x="34" y="234" width="306" height="15" fill="none"/></clipPath></defs><title>Prancheta 1</title><g clip-path="url(#1e9e6f5b-82ad-4949-b899-3ae2075fc234)"><text transform="translate(349 63)" font-size="10" fill="#5f5f5f" font-family="Roboto-Regular, Roboto" letter-spacing="-0.02em" style="isolation:isolate">100K</text><rect x="41" y="59" width="300" height="1" fill="#eaf0f4"/><text transform="translate(0.73 63)" font-size="10" fill="#5f5f5f" font-family="Roboto-Regular, Roboto" letter-spacing="-0.02em" style="isolation:isolate">R$30k</text><text transform="translate(349 104)" font-size="10" fill="#5f5f5f" font-family="Roboto-Regular, Roboto" letter-spacing="-0.02em" style="isolation:isolate">80K</text><rect x="41" y="100" width="300" height="1" fill="#eaf0f4"/><text transform="translate(0.73 104)" font-size="10" fill="#5f5f5f" font-family="Roboto-Regular, Roboto" letter-spacing="-0.02em" style="isolation:isolate">R$25k</text><text transform="translate(349 145)" font-size="10" fill="#5f5f5f" font-family="Roboto-Regular, Roboto" letter-spacing="-0.02em" style="isolation:isolate">60K</text><rect x="41" y="141" width="300" height="1" fill="#eaf0f4"/><text transform="translate(0.73 145)" font-size="10" fill="#5f5f5f" font-family="Roboto-Regular, Roboto" letter-spacing="-0.02em" style="isolation:isolate">R$20k</text><text transform="translate(349 186)" font-size="10" fill="#5f5f5f" font-family="Roboto-Regular, Roboto" letter-spacing="-0.02em" style="isolation:isolate">40K</text><rect x="41" y="182" width="300" height="1" fill="#eaf0f4"/><text transform="translate(0.73 186)" font-size="10" fill="#5f5f5f" font-family="Roboto-Regular, Roboto" letter-spacing="-0.02em" style="isolation:isolate">R$15k</text><text transform="translate(349 227)" font-size="10" fill="#5f5f5f" font-family="Roboto-Regular, Roboto" letter-spacing="-0.02em" style="isolation:isolate">20K</text><rect x="41" y="223" width="300" height="1" fill="#eaf0f4"/><text transform="translate(0.73 227)" font-size="10" fill="#5f5f5f" font-family="Roboto-Regular, Roboto" letter-spacing="-0.02em" style="isolation:isolate">R$10k</text></g><g clip-path="url(#a55337bc-e601-437f-af9f-aa7cb6f27bef)"><text transform="translate(36 246)" font-size="10" fill="#5f5f5f" font-family="Roboto-Regular, Roboto" letter-spacing="-0.02em" style="isolation:isolate">Campanha1</text><text transform="translate(98 246)" font-size="10" fill="#5f5f5f" font-family="Roboto-Regular, Roboto" letter-spacing="-0.02em" style="isolation:isolate">Campanha2</text><text transform="translate(160 246)" font-size="10" fill="#5f5f5f" font-family="Roboto-Regular, Roboto" letter-spacing="-0.02em" style="isolation:isolate">Campanha3</text><text transform="translate(222 246)" font-size="10" fill="#5f5f5f" font-family="Roboto-Regular, Roboto" letter-spacing="-0.02em" style="isolation:isolate">Campanha4</text><text transform="translate(284 246)" font-size="10" fill="#5f5f5f" font-family="Roboto-Regular, Roboto" letter-spacing="-0.02em" style="isolation:isolate">Campanha5</text></g><path d="M320,103h0a3,3,0,0,1,3,3V224h-6V106A3,3,0,0,1,320,103Z" fill="#ffcc3e"/><path d="M310,88h0a3,3,0,0,1,3,3V224h-6V91A3,3,0,0,1,310,88Z" fill="#f5239a"/><path d="M300,127h0a3,3,0,0,1,3,3v94h-6V130A3,3,0,0,1,300,127Z" fill="#3933ff"/><path d="M258,205h0a3,3,0,0,1,3,3v16h-6V208A3,3,0,0,1,258,205Z" fill="#ffcc3e"/><path d="M248,198h0a3,3,0,0,1,3,3v23h-6V201A3,3,0,0,1,248,198Z" fill="#f5239a"/><path d="M238,167h0a3,3,0,0,1,3,3v54h-6V170A3,3,0,0,1,238,167Z" fill="#3933ff"/><path d="M197,202h0a3,3,0,0,1,3,3v19h-6V205A3,3,0,0,1,197,202Z" fill="#ffcc3e"/><path d="M187,154h0a3,3,0,0,1,3,3v67h-6V157A3,3,0,0,1,187,154Z" fill="#f5239a"/><path d="M177,167h0a3,3,0,0,1,3,3v54h-6V170A3,3,0,0,1,177,167Z" fill="#3933ff"/><path d="M135,191.18h0a3,3,0,0,1,3,3V224h-6V194.18A3,3,0,0,1,135,191.18Z" fill="#ffcc3e"/><path d="M125,150h0a3,3,0,0,1,3,3v71h-6V153A3,3,0,0,1,125,150Z" fill="#f5239a"/><path d="M115,170.29h0a3,3,0,0,1,3,3V224h-6V173.29A3,3,0,0,1,115,170.29Z" fill="#3933ff"/><path d="M72,170h0a3,3,0,0,1,3,3v51H69V173A3,3,0,0,1,72,170Z" fill="#ffcc3e"/><path d="M62,118h0a3,3,0,0,1,3,3V224H59V121A3,3,0,0,1,62,118Z" fill="#f5239a"/><path d="M52,147h0a3,3,0,0,1,3,3v74H49V150A3,3,0,0,1,52,147Z" fill="#3933ff"/><circle cx="12" cy="8" r="7" fill="#fff"/><circle cx="12" cy="8" r="5.5" fill="none" stroke="#3933ff" stroke-width="3"/><g style="isolation:isolate"><text transform="translate(27 13)" font-size="14" fill="#5f5f5f" font-family="Roboto-Regular, Roboto" letter-spacing="-0.04em" style="isolation:isolate">F</text><text transform="translate(34.23 13)" font-size="14" fill="#5f5f5f" font-family="Roboto-Regular, Roboto" letter-spacing="-0.02em" style="isolation:isolate">acebook</text></g><circle cx="109" cy="8" r="7" fill="#fff"/><circle cx="109" cy="8" r="5.5" fill="none" stroke="#f5239a" stroke-width="3"/><g style="isolation:isolate"><text transform="translate(124 13)" font-size="14" fill="#5f5f5f" font-family="Roboto-Regular, Roboto" letter-spacing="-0.02em" style="isolation:isolate">Instag</text><text transform="translate(161.11 13)" font-size="14" fill="#5f5f5f" font-family="Roboto-Regular, Roboto" letter-spacing="-0.04em" style="isolation:isolate">r</text><text transform="translate(165.3 13)" font-size="14" fill="#5f5f5f" font-family="Roboto-Regular, Roboto" letter-spacing="-0.02em" style="isolation:isolate">am</text></g><circle cx="208" cy="8" r="7" fill="#fff"/><circle cx="208" cy="8" r="5.5" fill="none" stroke="#ffcc3e" stroke-width="3"/><text transform="translate(223 13)" font-size="14" fill="#5f5f5f" font-family="Roboto-Regular, Roboto" letter-spacing="-0.02em" style="isolation:isolate">Google</text></svg>