<svg xmlns="http://www.w3.org/2000/svg" xmlns:xlink="http://www.w3.org/1999/xlink" viewBox="0 0 1429 241.87"><defs><linearGradient id="3afcb41d-e84c-4d23-b26f-2a975396b72c" x1="43.59" y1="25.49" x2="162.11" y2="25.49" gradientUnits="userSpaceOnUse"><stop offset="0" stop-color="#0b094c"/><stop offset="0.89" stop-color="#3d377b"/></linearGradient><linearGradient id="937b5837-5636-4a8a-a7b1-2018e0455029" y1="101.74" x2="137.48" y2="101.74" gradientUnits="userSpaceOnUse"><stop offset="0" stop-color="#0b094c"/><stop offset="0.7" stop-color="#3d377b"/></linearGradient><linearGradient id="eb1ecb02-d08f-43b3-aa7a-6aba96da5d84" x1="36.83" y1="152.72" x2="162.11" y2="152.72" gradientUnits="userSpaceOnUse"><stop offset="0" stop-color="#0b094c"/><stop offset="1" stop-color="#3d377b"/></linearGradient><linearGradient id="f205ddd5-0d63-49c3-9a97-a679910918d5" x1="519.86" y1="25.58" x2="642.12" y2="25.58" gradientUnits="userSpaceOnUse"><stop offset="0" stop-color="#0b094c"/><stop offset="0.98" stop-color="#3d377b"/></linearGradient><linearGradient id="d02013dd-0124-4c41-a884-8db78b23d1a7" x1="517.52" y1="154.46" x2="642.12" y2="154.46" xlink:href="#eb1ecb02-d08f-43b3-aa7a-6aba96da5d84"/><linearGradient id="b0db3944-e99a-4bc4-9902-c97813235a9c" x1="479.66" y1="102.79" x2="617.56" y2="102.79" gradientUnits="userSpaceOnUse"><stop offset="0" stop-color="#0b094c"/><stop offset="0.79" stop-color="#3d377b"/></linearGradient></defs><title>easycampaign</title><g id="2d5163ea-c18d-4194-a160-b0b3bb4a6c3d" data-name="Camada 2"><g id="979eaca0-cb88-45bc-9e24-585372b6c1c8" data-name="Camada 1"><path d="M54.9,75.71c0-1,.05-1.48.05-1.48h-.49C54.6,74.72,54.75,75.22,54.9,75.71Z" fill="none"/><path d="M137.48,50.36l0,0a2.28,2.28,0,0,0,3.17-.08l20.78-21a2.28,2.28,0,0,0-.06-3.26A95.7,95.7,0,0,0,43.59,15.51C91,7,127.55,40.19,137.48,50.36Z" fill="url(#3afcb41d-e84c-4d23-b26f-2a975396b72c)"/><path d="M36.83,113.85l-.3-1h71.55a2.28,2.28,0,0,0,2.27-2.28V81a2.27,2.27,0,0,0-2.27-2.27H36.53A61.67,61.67,0,0,1,137.48,50.36C127.55,40.19,91,7,43.59,15.51A95.76,95.76,0,0,0,75.27,189.36C37.74,162.56,36.73,120.78,36.83,113.85Z" fill="url(#937b5837-5636-4a8a-a7b1-2018e0455029)"/><path d="M95.79,157.45a61.76,61.76,0,0,1-59-43.6c-.1,6.93.91,48.71,38.44,75.51a95.82,95.82,0,0,0,86.12-23.77,2.28,2.28,0,0,0,.06-3.26l-20.79-21.06a2.28,2.28,0,0,0-3.16-.07A61.22,61.22,0,0,1,95.79,157.45Z" fill="url(#eb1ecb02-d08f-43b3-aa7a-6aba96da5d84)"/><path d="M617.56,50.58h0a2.14,2.14,0,0,0,3-.06l20.94-21.22a2.29,2.29,0,0,0-.06-3.27,95.92,95.92,0,0,0-121.55-8.11C567.84,6.53,605.65,38.77,617.56,50.58Z" fill="url(#f205ddd5-0d63-49c3-9a97-a679910918d5)"/><path d="M575.66,157.8a61.9,61.9,0,0,1-58.14-40.87c.38,11.87,4.43,48.78,38.88,73.13a96.14,96.14,0,0,0,85-24.1,2.29,2.29,0,0,0,.06-3.27l-20.83-21.11a2.28,2.28,0,0,0-3.17-.07A61.41,61.41,0,0,1,575.66,157.8Z" fill="url(#d02013dd-0124-4c41-a884-8db78b23d1a7)"/><path d="M517.52,116.93a61.79,61.79,0,0,1,100-66.35c-11.91-11.81-49.72-44-97.7-32.65A96,96,0,0,0,556.4,190.06C522,165.71,517.9,128.8,517.52,116.93Z" fill="url(#b0db3944-e99a-4bc4-9902-c97813235a9c)"/><path d="M37.94,104.88c0-1,.05-1.48.05-1.48H37.5C37.64,103.89,37.79,104.39,37.94,104.88Z" fill="none"/><path d="M257.32,166.44a49.37,49.37,0,1,1,11.83-32.14v49.29H257.32Zm-37.46,5.32A37.46,37.46,0,1,0,182.4,134.3,37.19,37.19,0,0,0,219.86,171.76Z" fill="#19195e"/><path d="M276.65,191.09H249.82v-8.53a56.8,56.8,0,1,1,26.83-48.26Zm-56.79-86.75a30,30,0,0,0,0,59.92,29.64,29.64,0,0,0,30-30A30,30,0,0,0,219.86,104.34Z" fill="#19195e"/><path d="M288.86,171.76h27.61A15.82,15.82,0,0,0,332.24,156c0-23.07-43.38-9.27-43.38-43.38A27.69,27.69,0,0,1,316.47,85h27.6V96.84h-27.6a15.82,15.82,0,0,0-15.78,15.77c0,23.07,43.38,9.27,43.38,43.38a27.68,27.68,0,0,1-27.6,27.6H288.86Z" fill="#19195e"/><path d="M316.47,191.09H281.36V164.26h35.11a8.28,8.28,0,0,0,8.27-8.27c0-4.15-2.25-5.72-13.37-9.37-11.95-3.93-30-9.86-30-34a35.15,35.15,0,0,1,35.11-35.1h35.1v26.83h-35.1a8.28,8.28,0,0,0-8.28,8.27c0,4.14,2.25,5.72,13.37,9.37,11.95,3.93,30,9.86,30,34A35.15,35.15,0,0,1,316.47,191.09Z" fill="#19195e"/><path d="M398.48,232.88h-13l22.08-49.29L363.79,85H376.4l37.46,84.19L451.32,85h12.82Z" fill="#19195e"/><polygon points="403.36 240.38 373.89 240.38 399.34 183.57 352.25 77.51 381.27 77.51 413.86 150.75 446.45 77.51 475.68 77.51 403.36 240.38" fill="#19195e"/><path d="M737.5,167.35a50.62,50.62,0,0,1-45,16.67,49.5,49.5,0,0,1-42.62-43.12c-3.78-33.17,25.94-60.71,60-53.95,23.18,4.6,39.63,25.36,39.63,49V184.5h-12Zm-37.64,5.41A37.46,37.46,0,1,0,662.4,135.3,37.19,37.19,0,0,0,699.86,172.76Z" fill="#1b1464"/><path d="M757,192H730v-8.63a58.56,58.56,0,0,1-38.55,8.09,56.8,56.8,0,0,1-49.07-49.71,56.09,56.09,0,0,1,17.93-48.08,57.89,57.89,0,0,1,51-14.08C737.79,84.84,757,108.54,757,136Zm-57.14-86.66a30,30,0,0,0,0,59.92,29.64,29.64,0,0,0,30-30A30,30,0,0,0,699.86,105.34Z" fill="#1b1464"/><path d="M904.5,135.21c0-20.7-12.58-37.46-28.1-37.46s-27.9,16.76-27.9,37.46V184.5h-12V135.21c0-20.7-12.58-37.46-28.1-37.46-15.13,0-27.9,17.55-27.9,37.46V184.5h-12v-99h12V99.76c7.1-8.72,17-14.26,28-14.26,14.39,0,26.8,9.5,33.9,23.56C849.49,95,862.1,85.5,876.49,85.5c22.07,0,40,22.18,40,49.5v49.5h-12Z" fill="#1b1464"/><path d="M924,192H897V135.21c0-16.24-9.43-30-20.6-30s-20.4,13.44-20.4,30V192H829V135.21c0-16.24-9.43-30-20.6-30-10.68,0-20.4,14.28-20.4,30V192H761V78h27v5.54A40.78,40.78,0,0,1,808.49,78c13,0,25.06,6.28,33.91,17.25,8.86-11,21-17.25,34.09-17.25,26.2,0,47.51,25.57,47.51,57ZM776,117.16v.26c0-.15.11-.31.17-.46Z" fill="#1b1464"/><path d="M936.5,85.5h12v17.37a50.08,50.08,0,0,1,41.71-17.24c24.32,1.74,44.17,20.87,46.13,45.18,2.34,29-20.89,53.36-49.84,53.36a50.52,50.52,0,0,1-38-17.17v66.5h-12Zm49.24,87.26a37.46,37.46,0,1,0-37.46-37.46A37.45,37.45,0,0,0,985.74,172.76Z" fill="#1b1464"/><path d="M956,241H929V78h27v8.65a57.62,57.62,0,0,1,34.74-8.5c28,2,50.85,24.38,53.08,52.06a56,56,0,0,1-14.83,42.9A58,58,0,0,1,956,183Zm29.74-135.66a29.64,29.64,0,0,0-30,30,30,30,0,1,0,30-30Z" fill="#1b1464"/><path d="M1141.5,167.35a50.62,50.62,0,0,1-45,16.67,49.5,49.5,0,0,1-42.62-43.12c-3.78-33.17,25.94-60.71,60-53.95,23.18,4.6,39.63,25.36,39.63,49V184.5h-12ZM1104,172.76a37.46,37.46,0,1,0-37.46-37.46A37.19,37.19,0,0,0,1104,172.76Z" fill="#1b1464"/><path d="M1161,192h-27v-8.63a58.56,58.56,0,0,1-38.55,8.09,56.8,56.8,0,0,1-49.07-49.71,56.09,56.09,0,0,1,17.93-48.08,57.89,57.89,0,0,1,51-14.08c26.46,5.25,45.67,29,45.67,56.36Zm-57-86.66a30,30,0,0,0,0,59.92,29.64,29.64,0,0,0,30-30A30,30,0,0,0,1104,105.34Z" fill="#1b1464"/><path d="M1184.5,56.5h-12v-20h12Zm-12,29h12v99h-12Z" fill="#1b1464"/><path d="M1192,192h-27V78h27Zm0-128h-27V29h27Z" fill="#1b1464"/><path d="M1225.5,211.5a38.63,38.63,0,0,0,36.93,9.77c16.65-4.26,28.07-19.61,28.07-36.79V167.93a50.69,50.69,0,0,1-46.69,16.43,49.37,49.37,0,0,1-40.74-41.08c-4.57-30.53,19.34-56.78,49.43-56.78a50,50,0,0,1,38,17.35V86.5h12v97.81c0,21.74-17.22,44.06-38.45,48.78a50.28,50.28,0,0,1-47-13.31Zm28-38.74A37.46,37.46,0,1,0,1216,135.3,37.45,37.45,0,0,0,1253.49,172.76Z" fill="#1b1464"/><path d="M1252.51,241.87a57.1,57.1,0,0,1-40.73-16.81l-5.3-5.34,19-18.76,5.27,5.2a31.09,31.09,0,0,0,29.8,7.85A30.24,30.24,0,0,0,1283,184.48V184a58.42,58.42,0,0,1-40.42,7.78A56.56,56.56,0,0,1,1208.7,99,57.91,57.91,0,0,1,1283,87.69V79h27V184.31c0,25.51-19.88,50.67-44.32,56.1A60.54,60.54,0,0,1,1252.51,241.87Zm1-136.53a30,30,0,1,0,30,30A30,30,0,0,0,1253.49,105.34Z" fill="#1b1464"/><path d="M1322.5,85.5h12v17.42a49.21,49.21,0,0,1,43.79-17c23.81,2.92,43.21,25.61,43.21,49.6v49h-12V135.21A37.47,37.47,0,0,0,1372,97.75c-20.33,0-37.5,17.55-37.5,37.46V184.5h-12Z" fill="#1b1464"/><path d="M1429,192h-27V135.21a30,30,0,0,0-30-30c-16,0-30,14-30,30V192h-27V78h27v8.65a57,57,0,0,1,37.2-8.21c27.46,3.36,49.8,29,49.8,57Z" fill="#1b1464"/></g></g></svg>