<svg id="Camada_1" data-name="Camada 1" xmlns="http://www.w3.org/2000/svg" xmlns:xlink="http://www.w3.org/1999/xlink" viewBox="0 0 371 186"><defs><clipPath id="clip-path"><polygon points="182.71 22.25 182.71 94.76 92.68 184.1 23.96 184.1 60.94 69.84 182.71 22.25" style="fill:none"/></clipPath><linearGradient id="Gradiente_sem_nome" x1="-110.96" y1="511.18" x2="-111.17" y2="510.57" gradientTransform="matrix(285.34, 0, 0, -142.81, 31886.16, 73099.55)" gradientUnits="userSpaceOnUse"><stop offset="0" stop-color="#fff700"/><stop offset="1" stop-color="#ff2727"/></linearGradient></defs><title>estoque_graph</title><path d="M182.46,89.57a93.07,93.07,0,0,1,93.1,93v.06h49.53A142.69,142.69,0,0,0,182.4,40h0C103.5,40,39.75,104,39.75,182.75H89.28A93.22,93.22,0,0,1,182.46,89.57Z" style="fill:#f0f2f8;stroke:#f0f2f8;stroke-miterlimit:10"/><line x1="335.5" y1="182.75" x2="325.09" y2="182.75" style="fill:none;stroke:#f0f2f8;stroke-miterlimit:10;stroke-width:2px"/><line x1="329.8" y1="141.19" x2="319.75" y2="144" style="fill:none;stroke:#f0f2f8;stroke-miterlimit:10;stroke-width:2px"/><line x1="309.79" y1="97.72" x2="301.09" y2="103.52" style="fill:none;stroke:#f0f2f8;stroke-miterlimit:10;stroke-width:2px"/><line x1="277.01" y1="62.31" x2="270.58" y2="70.55" style="fill:none;stroke:#f0f2f8;stroke-miterlimit:10;stroke-width:2px"/><line x1="236.07" y1="39.31" x2="232.36" y2="49.09" style="fill:none;stroke:#f0f2f8;stroke-miterlimit:10;stroke-width:2px"/><line x1="29.33" y1="182.75" x2="39.75" y2="182.75" style="fill:none;stroke:#f0f2f8;stroke-miterlimit:10;stroke-width:2px"/><line x1="35.04" y1="141.19" x2="45.09" y2="144" style="fill:none;stroke:#f0f2f8;stroke-miterlimit:10;stroke-width:2px"/><line x1="55.14" y1="97.72" x2="63.75" y2="103.52" style="fill:none;stroke:#f0f2f8;stroke-miterlimit:10;stroke-width:2px"/><line x1="87.83" y1="62.31" x2="94.26" y2="70.55" style="fill:none;stroke:#f0f2f8;stroke-miterlimit:10;stroke-width:2px"/><line x1="128.86" y1="39.31" x2="132.48" y2="49.09" style="fill:none;stroke:#f0f2f8;stroke-miterlimit:10;stroke-width:2px"/><line x1="182.46" y1="40.04" x2="182.46" y2="29.62" style="fill:none;stroke:#f0f2f8;stroke-miterlimit:10;stroke-width:2px"/><g style="clip-path:url(#clip-path)"><path d="M182.46,89.57a93.07,93.07,0,0,1,93.1,93v.06h49.53A142.69,142.69,0,0,0,182.4,40h0C103.5,40,39.75,104,39.75,182.75H89.28A93.22,93.22,0,0,1,182.46,89.57Z" style="fill:url(#Gradiente_sem_nome)"/></g><g style="isolation:isolate"><text transform="translate(0.19 183)" style="isolation:isolate;font-size:10px;fill:#4d4d4d;font-family:Roboto-Regular, Roboto;letter-spacing:-0.018994140625em">0</text></g><g style="isolation:isolate"><text transform="translate(353.78 183)" style="isolation:isolate;font-size:10px;fill:#4d4d4d;font-family:Roboto-Regular, Roboto;letter-spacing:-0.018994140625em">100</text></g><g style="isolation:isolate"><text transform="translate(2.49 139)" style="isolation:isolate;font-size:10px;fill:#4d4d4d;font-family:Roboto-Regular, Roboto;letter-spacing:-0.018994140625em">10</text></g><g style="isolation:isolate"><text transform="translate(352.48 139)" style="isolation:isolate;font-size:10px;fill:#4d4d4d;font-family:Roboto-Regular, Roboto;letter-spacing:-0.018994140625em">90</text></g><g style="isolation:isolate"><text transform="translate(22.49 86)" style="isolation:isolate;font-size:10px;fill:#4d4d4d;font-family:Roboto-Regular, Roboto;letter-spacing:-0.018994140625em">20</text></g><g style="isolation:isolate"><text transform="translate(330.48 86)" style="isolation:isolate;font-size:10px;fill:#4d4d4d;font-family:Roboto-Regular, Roboto;letter-spacing:-0.018994140625em">80</text></g><g style="isolation:isolate"><text transform="translate(64.49 48)" style="isolation:isolate;font-size:10px;fill:#4d4d4d;font-family:Roboto-Regular, Roboto;letter-spacing:-0.018994140625em">30</text></g><g style="isolation:isolate"><text transform="translate(292.48 48)" style="isolation:isolate;font-size:10px;fill:#4d4d4d;font-family:Roboto-Regular, Roboto;letter-spacing:-0.018994140625em">70</text></g><g style="isolation:isolate"><text transform="translate(114.49 21)" style="isolation:isolate;font-size:10px;fill:#4d4d4d;font-family:Roboto-Regular, Roboto;letter-spacing:-0.018994140625em">40</text></g><g style="isolation:isolate"><text transform="translate(244.49 21)" style="isolation:isolate;font-size:10px;fill:#4d4d4d;font-family:Roboto-Regular, Roboto;letter-spacing:-0.018994140625em">60</text></g><g style="isolation:isolate"><text transform="translate(179.48 10)" style="isolation:isolate;font-size:10px;fill:#4d4d4d;font-family:Roboto-Regular, Roboto;letter-spacing:-0.018994140625em">50</text></g><g style="isolation:isolate"><text transform="translate(152.12 174)" style="isolation:isolate;font-size:34px;fill:#4d4d4d;font-family:Poppins-SemiBold, Poppins;font-weight:700;letter-spacing:-0.04001034007352941em">50%</text></g></svg>