<svg xmlns="http://www.w3.org/2000/svg" viewBox="0 0 38 37.806"><defs><style>.a{fill:#0800ff;}</style></defs><g transform="translate(0 0)"><path class="a" d="M33.638,61a4.369,4.369,0,0,0-4.313,3.711L28,66.038A13.093,13.093,0,0,1,18.9,69.725H10.179a4.369,4.369,0,0,0-4.112,2.908h-.25a5.816,5.816,0,0,0,0,11.633h.25a4.383,4.383,0,0,0,2.658,2.658v7.521a4.362,4.362,0,1,0,8.724,0v-7.27H18.9A13.093,13.093,0,0,1,28,90.86l1.326,1.326A4.362,4.362,0,0,0,38,91.536V65.362A4.367,4.367,0,0,0,33.638,61ZM5.816,81.357a2.908,2.908,0,1,1,0-5.816Zm8.724,13.087a1.454,1.454,0,1,1-2.908,0v-7.27h2.908Zm2.908-10.179h-7.27a1.456,1.456,0,0,1-1.454-1.454V74.087a1.456,1.456,0,0,1,1.454-1.454h7.27Zm11.827,3.814a15.894,15.894,0,0,0-8.928-3.748V72.567a15.892,15.892,0,0,0,8.928-3.748Zm5.816,3.456a1.456,1.456,0,0,1-1.454,1.454h0a1.456,1.456,0,0,1-1.454-1.454V65.362a1.454,1.454,0,1,1,2.908,0Z" transform="translate(0 -61)"/></g></svg>