<svg xmlns="http://www.w3.org/2000/svg" viewBox="0 0 19 19"><defs><style>.a{fill:none;stroke:#4d4d4d;stroke-linecap:round;stroke-linejoin:round;stroke-width:2px;}</style></defs><g transform="translate(-2 -2)"><path class="a" d="M3,17.167V11.5a8.5,8.5,0,1,1,17,0v5.667"/><path class="a" d="M20,18.722a1.889,1.889,0,0,1-1.889,1.889h-.944a1.889,1.889,0,0,1-1.889-1.889V15.889A1.889,1.889,0,0,1,17.167,14H20Zm-17,0a1.889,1.889,0,0,0,1.889,1.889h.944a1.889,1.889,0,0,0,1.889-1.889V15.889A1.889,1.889,0,0,0,5.833,14H3Z" transform="translate(0 -0.611)"/></g></svg>