<svg xmlns="http://www.w3.org/2000/svg" viewBox="0 0 38.213 40.969"><defs><style>.a{fill:none;stroke:#4d4d4d;stroke-linecap:round;stroke-linejoin:round;stroke-width:3px;}</style></defs><g transform="translate(-0.5 0.289)"><path class="a" d="M21.173,1.609,35.259,8.651A3.521,3.521,0,0,1,37.213,11.8V28.582a3.521,3.521,0,0,1-1.954,3.152L21.173,38.776a3.521,3.521,0,0,1-3.152,0L3.937,31.733A3.521,3.521,0,0,1,2,28.564V11.8A3.521,3.521,0,0,1,3.954,8.651L18.039,1.609a3.521,3.521,0,0,1,3.134,0Z" transform="translate(0 0)"/><path class="a" d="M2.32,6.16l17.043,8.521L36.406,6.16" transform="translate(0.243 3.742)"/><line class="a" y1="20.705" transform="translate(19.606 18.423)"/><line class="a" x2="17.606" y2="8.803" transform="translate(10.803 5.218)"/></g></svg>