<svg xmlns="http://www.w3.org/2000/svg" xmlns:xlink="http://www.w3.org/1999/xlink" viewBox="0 0 1429.012 241.893"><defs><style>.a{fill:none;}.b{fill:url(#a);}.c{fill:url(#b);}.d{fill:url(#c);}.e{fill:url(#d);}.f{fill:url(#e);}.g{fill:url(#f);}.h{fill:#19195e;}.i{fill:#1b1464;}</style><linearGradient id="a" y1="0.5" x2="1" y2="0.5" gradientUnits="objectBoundingBox"><stop offset="0" stop-color="#0b094c"/><stop offset="0.89" stop-color="#3d377b"/></linearGradient><linearGradient id="b" y1="0.5" x2="1" y2="0.5" gradientUnits="objectBoundingBox"><stop offset="0" stop-color="#0b094c"/><stop offset="0.7" stop-color="#3d377b"/></linearGradient><linearGradient id="c" y1="0.5" x2="1" y2="0.5" gradientUnits="objectBoundingBox"><stop offset="0" stop-color="#0b094c"/><stop offset="1" stop-color="#3d377b"/></linearGradient><linearGradient id="d" y1="0.5" x2="1" y2="0.5" gradientUnits="objectBoundingBox"><stop offset="0" stop-color="#0b094c"/><stop offset="0.98" stop-color="#3d377b"/></linearGradient><linearGradient id="e" x1="0" y1="0.5" x2="1" y2="0.5" xlink:href="#c"/><linearGradient id="f" y1="0.5" x2="1" y2="0.5" gradientUnits="objectBoundingBox"><stop offset="0" stop-color="#0b094c"/><stop offset="0.79" stop-color="#3d377b"/></linearGradient></defs><g transform="translate(-45.988 -133.978)"><path class="a" d="M100.9,209.71v-1.48h-.49C100.6,208.72,100.75,209.22,100.9,209.71Z"/><path class="b" d="M183.48,184.36h0a2.28,2.28,0,0,0,3.17-.08l20.78-21.05a2.28,2.28,0,0,0-.06-3.26,95.7,95.7,0,0,0-117.8-10.48C137,141,173.55,174.19,183.48,184.36Z"/><path class="c" d="M82.83,247.85l-.3-1h71.55a2.28,2.28,0,0,0,2.27-2.28V215a2.27,2.27,0,0,0-2.27-2.27H82.53a61.67,61.67,0,0,1,100.95-28.37C173.55,174.19,137,141,89.59,149.51a95.76,95.76,0,0,0,31.68,173.85C83.74,296.56,82.73,254.78,82.83,247.85Z"/><path class="d" d="M141.79,291.45a61.76,61.76,0,0,1-59-43.6c-.1,6.93.91,48.71,38.44,75.51a95.82,95.82,0,0,0,86.12-23.77,2.28,2.28,0,0,0,.06-3.26l-20.79-21.06a2.28,2.28,0,0,0-3.16-.07A61.22,61.22,0,0,1,141.79,291.45Z"/><path class="e" d="M663.56,184.58h0a2.14,2.14,0,0,0,3-.06L687.5,163.3a2.29,2.29,0,0,0-.06-3.27,95.92,95.92,0,0,0-121.55-8.11C613.84,140.53,651.65,172.77,663.56,184.58Z"/><path class="f" d="M621.66,291.8a61.9,61.9,0,0,1-58.14-40.87c.38,11.87,4.43,48.78,38.88,73.13a96.14,96.14,0,0,0,85-24.1,2.29,2.29,0,0,0,.06-3.27l-20.83-21.11a2.28,2.28,0,0,0-3.17-.07,61.41,61.41,0,0,1-41.8,16.29Z"/><path class="g" d="M563.52,250.93a61.79,61.79,0,0,1,100-66.35c-11.91-11.81-49.72-44.05-97.7-32.65A96,96,0,0,0,602.4,324.06C568,299.71,563.9,262.8,563.52,250.93Z"/><path class="a" d="M83.94,238.88V237.4H83.5C83.64,237.89,83.79,238.39,83.94,238.88Z"/><path class="h" d="M303.32,300.44a49.37,49.37,0,1,1,11.83-32.14v49.29H303.32Zm-37.46,5.32a37.19,37.19,0,1,0-26.568-10.892A37.46,37.46,0,0,0,265.86,305.76Z"/><path class="h" d="M322.65,325.09H295.82v-8.53a56.8,56.8,0,1,1,26.83-48.26Zm-56.79-86.75a30,30,0,0,0,0,59.92,29.64,29.64,0,0,0,30-30A30,30,0,0,0,265.86,238.34Z"/><path class="h" d="M334.86,305.76h27.61A15.82,15.82,0,0,0,378.24,290c0-23.07-43.38-9.27-43.38-43.38A27.69,27.69,0,0,1,362.47,219h27.6v11.83h-27.6a15.82,15.82,0,0,0-15.78,15.77c0,23.07,43.38,9.27,43.38,43.38a27.68,27.68,0,0,1-27.6,27.6H334.86Z"/><path class="h" d="M362.47,325.09H327.36V298.26h35.11a8.28,8.28,0,0,0,8.27-8.27c0-4.15-2.25-5.72-13.37-9.37-11.95-3.93-30-9.86-30-34a35.15,35.15,0,0,1,35.11-35.1h35.1v26.83h-35.1a8.28,8.28,0,0,0-8.28,8.27c0,4.14,2.25,5.72,13.37,9.37,11.95,3.93,30,9.86,30,34a35.15,35.15,0,0,1-35.1,35.1Z"/><path class="h" d="M444.48,366.88h-13l22.08-49.29L409.79,219H422.4l37.46,84.19L497.32,219h12.82Z"/><path class="h" d="M449.36,374.38H419.89l25.45-56.81L398.25,211.51h29.02l32.59,73.24,32.59-73.24h29.22Z"/><path class="i" d="M783.5,301.35a50.62,50.62,0,0,1-45,16.67,49.5,49.5,0,0,1-42.62-43.12c-3.78-33.17,25.94-60.71,60-53.95,23.18,4.6,39.63,25.36,39.63,49V318.5h-12Zm-37.64,5.41a37.19,37.19,0,1,0-26.568-10.892A37.46,37.46,0,0,0,745.86,306.76Z"/><path class="i" d="M803,326H776v-8.63a58.56,58.56,0,0,1-38.55,8.09,56.8,56.8,0,0,1-49.07-49.71,56.09,56.09,0,0,1,17.93-48.08,57.89,57.89,0,0,1,51-14.08C783.79,218.84,803,242.54,803,270Zm-57.14-86.66a30,30,0,0,0,0,59.92,29.64,29.64,0,0,0,30-30,30,30,0,0,0-30-29.92Z"/><path class="i" d="M950.5,269.21c0-20.7-12.58-37.46-28.1-37.46s-27.9,16.76-27.9,37.46V318.5h-12V269.21c0-20.7-12.58-37.46-28.1-37.46-15.13,0-27.9,17.55-27.9,37.46V318.5h-12v-99h12v14.26c7.1-8.72,17-14.26,28-14.26,14.39,0,26.8,9.5,33.9,23.56,7.1-14.06,19.71-23.56,34.1-23.56,22.07,0,40,22.18,40,49.5v49.5h-12Z"/><path class="i" d="M970,326H943V269.21c0-16.24-9.43-30-20.6-30s-20.4,13.44-20.4,30V326H875V269.21c0-16.24-9.43-30-20.6-30-10.68,0-20.4,14.28-20.4,30V326H807V212h27v5.54A40.78,40.78,0,0,1,854.49,212c13,0,25.06,6.28,33.91,17.25,8.86-11,21-17.25,34.09-17.25,26.2,0,47.51,25.57,47.51,57ZM822,251.16v.26a1.434,1.434,0,0,1,.17-.46Z"/><path class="i" d="M982.5,219.5h12v17.37a50.08,50.08,0,0,1,41.71-17.24c24.32,1.74,44.17,20.87,46.13,45.18,2.34,29-20.89,53.36-49.84,53.36a50.52,50.52,0,0,1-38-17.17v66.5h-12Zm49.24,87.26a37.46,37.46,0,1,0-37.46-37.46A37.46,37.46,0,0,0,1031.74,306.76Z"/><path class="i" d="M1002,375H975V212h27v8.65a57.621,57.621,0,0,1,34.74-8.5c28,2,50.85,24.38,53.08,52.06a56,56,0,0,1-14.83,42.9,58,58,0,0,1-73,9.92Zm29.74-135.66a29.64,29.64,0,0,0-30,30,30,30,0,1,0,30-30Z"/><path class="i" d="M1187.5,301.35a50.62,50.62,0,0,1-45,16.67,49.5,49.5,0,0,1-42.62-43.12c-3.78-33.17,25.94-60.71,60-53.95,23.18,4.6,39.63,25.36,39.63,49V318.5h-12Zm-37.5,5.41a37.19,37.19,0,1,0-26.568-10.892A37.46,37.46,0,0,0,1150,306.76Z"/><path class="i" d="M1207,326h-27v-8.63a58.561,58.561,0,0,1-38.55,8.09,56.8,56.8,0,0,1-49.07-49.71,56.09,56.09,0,0,1,17.93-48.08,57.89,57.89,0,0,1,51-14.08c26.46,5.25,45.67,28.95,45.67,56.36Zm-57-86.66a30,30,0,0,0,0,59.92,29.64,29.64,0,0,0,30-30,30,30,0,0,0-30-29.92Z"/><path class="i" d="M1230.5,190.5h-12v-20h12Zm-12,29h12v99h-12Z"/><path class="i" d="M1238,326h-27V212h27Zm0-128h-27V163h27Z"/><path class="i" d="M1271.5,345.5a38.63,38.63,0,0,0,36.93,9.77c16.65-4.26,28.07-19.61,28.07-36.79V301.93a50.69,50.69,0,0,1-46.69,16.43,49.37,49.37,0,0,1-40.74-41.08c-4.57-30.53,19.34-56.78,49.43-56.78a50,50,0,0,1,38,17.35V220.5h12v97.81c0,21.74-17.22,44.06-38.45,48.78a50.28,50.28,0,0,1-47-13.31Zm28-38.74a37.281,37.281,0,1,0-.01,0Z"/><path class="i" d="M1298.51,375.87a57.1,57.1,0,0,1-40.73-16.81l-5.3-5.34,19-18.76,5.27,5.2a31.09,31.09,0,0,0,29.8,7.85A30.24,30.24,0,0,0,1329,318.48V318a58.42,58.42,0,0,1-40.42,7.78A56.56,56.56,0,0,1,1254.7,233a57.91,57.91,0,0,1,74.3-11.32V213h27V318.31c0,25.51-19.88,50.67-44.32,56.1a60.543,60.543,0,0,1-13.17,1.46Zm1-136.53a30.01,30.01,0,1,1-.02,0Z"/><path class="i" d="M1368.5,219.5h12v17.42a49.21,49.21,0,0,1,43.79-17c23.81,2.92,43.21,25.61,43.21,49.6v49h-12V269.21a37.47,37.47,0,0,0-37.5-37.46c-20.33,0-37.5,17.55-37.5,37.46V318.5h-12Z"/><path class="i" d="M1475,326h-27V269.21a30,30,0,0,0-30-30c-16,0-30,14-30,30V326h-27V212h27v8.65a57,57,0,0,1,37.2-8.21c27.46,3.36,49.8,28.95,49.8,57Z"/></g></svg>