<svg xmlns="http://www.w3.org/2000/svg" viewBox="0 0 20.124 20.124"><defs><style>.a{fill:none;stroke:#4d4d4d;stroke-linecap:round;stroke-linejoin:round;stroke-width:2px;}</style></defs><circle class="a" cx="2.57" cy="2.57" r="2.57" transform="translate(7.492 7.492)"/><path class="a" d="M16.158,12.533a1.359,1.359,0,0,0,.272,1.5l.049.049a1.649,1.649,0,1,1-2.331,2.331l-.049-.049a1.37,1.37,0,0,0-2.323.972v.14a1.648,1.648,0,0,1-3.3,0V17.4a1.359,1.359,0,0,0-.89-1.244,1.359,1.359,0,0,0-1.5.272l-.049.049A1.649,1.649,0,1,1,3.71,14.148L3.76,14.1a1.37,1.37,0,0,0-.972-2.323h-.14a1.648,1.648,0,0,1,0-3.3h.074a1.359,1.359,0,0,0,1.244-.89,1.359,1.359,0,0,0-.272-1.5l-.049-.049A1.649,1.649,0,1,1,5.976,3.71l.049.049a1.359,1.359,0,0,0,1.5.272h.066a1.359,1.359,0,0,0,.824-1.244v-.14a1.648,1.648,0,0,1,3.3,0v.074a1.37,1.37,0,0,0,2.323.972l.049-.049a1.649,1.649,0,1,1,2.331,2.331l-.049.049a1.359,1.359,0,0,0-.272,1.5v.066a1.359,1.359,0,0,0,1.244.824h.14a1.648,1.648,0,0,1,0,3.3H17.4A1.359,1.359,0,0,0,16.158,12.533Z" transform="translate(0 0)"/></svg>