<svg xmlns="http://www.w3.org/2000/svg" viewBox="0 0 41.457 41.457"><defs><style>.a{fill:none;stroke:#4d4d4d;stroke-linecap:round;stroke-linejoin:round;stroke-width:3px;}</style></defs><g transform="translate(0.5 0.5)"><circle class="a" cx="5.454" cy="5.454" r="5.454" transform="translate(14.774 14.774)"/><path class="a" d="M33.164,25.472a2.884,2.884,0,0,0,.577,3.181l.1.1A3.5,3.5,0,1,1,28.9,33.706l-.1-.1a2.908,2.908,0,0,0-4.929,2.063v.3a3.5,3.5,0,0,1-6.992,0V35.8a2.884,2.884,0,0,0-1.888-2.64,2.884,2.884,0,0,0-3.181.577l-.1.1A3.5,3.5,0,1,1,6.751,28.9l.1-.1a2.908,2.908,0,0,0-2.063-4.929H4.5a3.5,3.5,0,0,1,0-6.992h.157a2.884,2.884,0,0,0,2.64-1.888A2.884,2.884,0,0,0,6.716,11.8l-.1-.1a3.5,3.5,0,1,1,4.947-4.947l.1.1a2.884,2.884,0,0,0,3.181.577h.14a2.884,2.884,0,0,0,1.748-2.64V4.5a3.5,3.5,0,0,1,6.992,0v.157a2.908,2.908,0,0,0,4.929,2.063l.1-.1a3.5,3.5,0,1,1,4.947,4.947l-.1.1a2.884,2.884,0,0,0-.577,3.181v.14a2.884,2.884,0,0,0,2.64,1.748h.3a3.5,3.5,0,0,1,0,6.992H35.8A2.884,2.884,0,0,0,33.164,25.472Z" transform="translate(0 0)"/></g></svg>